<?xml version="1.0" standalone="no"?>
<!DOCTYPE svg PUBLIC "-//W3C//DTD SVG 20010904//EN"
 "http://www.w3.org/TR/2001/REC-SVG-20010904/DTD/svg10.dtd">
<svg version="1.0" xmlns="http://www.w3.org/2000/svg"
 width="600.000000pt" height="600.000000pt" viewBox="0 0 600.000000 600.000000"
 preserveAspectRatio="xMidYMid meet">
<metadata>
Created by potrace 1.14, written by Peter Selinger 2001-2017
</metadata>
<g transform="translate(0.000000,600.000000) scale(0.100000,-0.100000)"
fill="#000000" stroke="none">
<path d="M20 3000 l0 -1820 313 2 312 3 -1 1230 c0 677 -4 1268 -8 1315 -4 47
-9 108 -11 135 -7 112 -16 232 -20 270 -5 51 -17 229 -19 275 l-1 35 63 0 62
0 1 -40 c1 -22 2 -51 4 -65 1 -14 5 -60 9 -103 3 -43 8 -97 10 -120 6 -58 15
-159 21 -237 5 -61 8 -100 20 -225 2 -27 7 -86 10 -130 7 -92 12 -152 19 -215
3 -25 8 -81 11 -125 3 -44 8 -96 10 -115 2 -19 7 -71 10 -115 3 -44 8 -98 10
-120 2 -22 7 -74 10 -115 3 -41 8 -95 10 -120 2 -25 7 -79 10 -120 3 -41 8
-91 10 -110 2 -19 7 -73 10 -120 4 -47 8 -96 10 -110 2 -14 6 -65 10 -115 3
-49 8 -106 10 -125 2 -19 7 -71 10 -115 4 -44 8 -96 10 -115 2 -19 7 -71 10
-115 3 -44 8 -91 10 -105 3 -20 13 -156 19 -245 1 -20 9 -20 519 -23 l517 -2
1 37 c1 21 2 49 4 63 1 14 5 66 9 115 4 50 9 108 11 130 2 22 7 74 10 115 4
41 8 95 10 120 2 25 7 79 10 120 3 41 7 95 10 120 2 25 7 79 10 120 3 41 8 95
10 120 4 42 13 154 20 245 11 145 17 214 20 245 3 19 7 69 10 110 5 82 15 198
20 245 2 17 6 71 10 120 3 50 8 106 10 125 2 19 7 71 10 115 5 74 8 109 20
235 3 39 13 159 20 255 1 17 6 68 10 115 4 47 8 101 10 120 2 19 7 82 11 140
4 58 8 108 8 112 2 16 21 22 72 23 l55 1 -5 -75 c-7 -96 -15 -210 -21 -281 -2
-30 -7 -91 -10 -135 -3 -44 -9 -100 -12 -125 -3 -25 -8 -631 -10 -1347 l-4
-1303 311 0 310 0 1 53 c0 28 0 846 1 1817 l0 1765 -601 3 c-477 2 -601 0
-602 -10 0 -7 -2 -22 -4 -33 -2 -11 -7 -63 -10 -115 -3 -52 -8 -111 -10 -130
-2 -19 -7 -78 -10 -130 -3 -52 -8 -111 -10 -130 -2 -19 -7 -82 -11 -139 -3
-58 -8 -116 -9 -130 -2 -14 -6 -70 -10 -124 -7 -108 -11 -162 -19 -252 -3 -33
-8 -94 -11 -135 -3 -41 -7 -102 -10 -135 -2 -33 -7 -98 -10 -145 -3 -47 -7
-105 -10 -130 -2 -25 -7 -81 -10 -125 -5 -77 -10 -135 -20 -257 -3 -31 -7 -96
-10 -145 -3 -48 -7 -106 -10 -128 -2 -22 -7 -85 -11 -140 -3 -55 -8 -111 -9
-125 -2 -14 -4 -156 -4 -315 l-1 -290 -57 1 c-32 1 -60 2 -63 3 -3 0 -5 121
-6 269 0 238 -4 348 -19 517 -5 61 -13 165 -20 265 -3 41 -7 102 -10 135 -3
33 -8 92 -10 130 -3 39 -8 94 -10 123 -3 28 -7 91 -10 140 -3 48 -8 107 -10
132 -2 25 -7 83 -10 130 -3 46 -8 107 -10 135 -3 27 -7 79 -10 115 -7 99 -15
199 -20 260 -2 30 -7 93 -10 140 -3 47 -7 105 -10 130 -2 25 -7 81 -10 125 -5
81 -9 126 -21 270 -10 122 -11 146 -13 198 l-1 47 -605 0 -605 0 0 -1820z"/>
<path d="M3463 3001 l0 -1821 343 0 344 0 0 685 0 685 63 0 c323 1 846 9 863
13 12 3 39 8 60 11 257 41 506 198 663 418 79 109 158 299 176 419 4 24 10 64
15 89 9 48 6 399 -4 440 -5 24 -11 52 -20 95 -20 93 -78 225 -145 327 -143
218 -362 363 -658 435 -60 14 -169 17 -884 20 l-816 4 0 -1820z m1510 1146
c112 -28 188 -76 254 -163 62 -81 85 -162 84 -298 -1 -163 -27 -237 -111 -329
-70 -77 -156 -120 -280 -142 -26 -5 -610 -9 -752 -5 -17 0 -18 29 -18 473 0
261 2 476 4 478 3 2 173 4 378 3 309 -1 385 -4 441 -17z"/>
</g>
</svg>
